<?xml version="1.0" encoding="utf-8"?>
<!-- Generator: Adobe Illustrator 24.2.0, SVG Export Plug-In . SVG Version: 6.00 Build 0)  -->
<svg version="1.1" id="Layer_1" xmlns="http://www.w3.org/2000/svg" xmlns:xlink="http://www.w3.org/1999/xlink" x="0px" y="0px"
	 viewBox="0 0 50 50" style="enable-background:new 0 0 50 50;" xml:space="preserve">
<style type="text/css">
	.st0{display:none;}
	.st1{fill:#FFFFFF;}
	.st2{fill:none;stroke:#000000;stroke-miterlimit:10;}
	.st3{fill:none;stroke:#000000;stroke-width:3;stroke-miterlimit:10;}
</style>
<rect x="-3" y="-1" class="st0" width="53" height="51"/>
<path class="st1" d="M10.4,6.9c-1.1,0-1.7,0.4-1.7,0.4s-1.1,1-2.2,1.5c-0.3,1.1-0.3,2.9-0.3,2.9s1.3,0.6,0.6,2.5
	c-0.2,0.9-0.1,0.3-0.3,1.3c0.4,1.4,0.7,0,0.8,2.5C7.5,19,7.8,18.2,8,19.2c-0.1,1.2-0.8,2.9,0.3,4.3c0.5,0.4,0.4,0.6,0.9,1.3
	c0,5.7,2.1,7.7,2.1,7.7s0.1,1.3,1.5,1.8c2,4.9,2.5,4,2.9,4.5c0.2,0.9,1.2,3.3,2.6,3.7c0.4,2,4.6,4,4.6,4s1.1,0.8,1.6-0.2
	c1.2,0.1,2.6-1.9,2.6-1.9s1.7-1,2.1-2.5c2-1.4,2.6-2.3,2.8-3.3c1.9-1.1,1.3-2.4,1.3-2.4s0.3-0.3,0.8-2.4c1.7-1.4,3.6-3.7,3.6-5.8
	c1.5-1.5,1.3-3,1.3-3l0.3-1.2c0,0-0.4-2.9,0.7-3.6c0.8-1.1,0.4-2.6,0.4-2.6s0.9-2.1,0.3-3.7c0.8-1.8,0.2-3.9,0.2-3.9
	s-0.1-1.9-3.4-1.3c-1.6-0.1-2.7-0.3-2.7-0.3S34,8.2,32.7,7.9C32.2,7.1,32.8,6,32.8,6s2.3-0.4,0.2-1.6c-0.9-1.5-1.4-1.6-1.4-1.6
	S29.3,3,27,1.3c-1.5,1-2.7,0.4-2.7,0.4s-2.4-0.4-4.5,0.6c-2.2-0.1-4.6,1.3-4.6,1.3l-1.5,0.5c0,0,0,0.2,0.3,1.9c0.4,2.1,0,2.1,0,2.1
	S12.4,8.7,10.4,6.9z"/>
<g id="Layer_2">
	<polyline class="st2" points="13,11.8 13,32.8 34,32.8 	"/>
	<line class="st3" x1="16.6" y1="30.7" x2="16.6" y2="14.8"/>
	<line class="st3" x1="20.3" y1="30.7" x2="20.3" y2="19.4"/>
	<line class="st3" x1="24.1" y1="30.7" x2="24.1" y2="17.1"/>
	<line class="st3" x1="27.9" y1="30.7" x2="27.9" y2="23.9"/>
	<line class="st3" x1="31.7" y1="30.7" x2="31.7" y2="12.4"/>
</g>
</svg>
